<svg width="24" height="24" viewBox="0 0 24 24" fill="none" xmlns="http://www.w3.org/2000/svg">
<path fill-rule="evenodd" clip-rule="evenodd" d="M12 21.8C17.4124 21.8 21.8 17.4124 21.8 12C21.8 6.58761 17.4124 2.2 12 2.2C6.58761 2.2 2.2 6.58761 2.2 12C2.2 17.4124 6.58761 21.8 12 21.8ZM24 12C24 18.6274 18.6274 24 12 24C5.37258 24 0 18.6274 0 12C0 5.37258 5.37258 0 12 0C18.6274 0 24 5.37258 24 12Z" fill="#535968"/>
<path fill-rule="evenodd" clip-rule="evenodd" d="M7.75691 7.75666C8.22554 7.28803 8.98533 7.28803 9.45396 7.75666L11.9993 10.302L14.5438 7.75748C15.0124 7.28885 15.7722 7.28885 16.2408 7.75748C16.7094 8.22611 16.7094 8.9859 16.2408 9.45453L13.6963 11.999L16.2422 14.5449C16.7108 15.0135 16.7108 15.7733 16.2422 16.2419C15.7736 16.7106 15.0138 16.7106 14.5451 16.2419L11.9993 13.6961L9.45259 16.2428C8.98396 16.7114 8.22416 16.7114 7.75553 16.2428C7.2869 15.7741 7.2869 15.0143 7.75553 14.5457L10.3022 11.999L7.75691 9.45372C7.28828 8.98509 7.28828 8.22529 7.75691 7.75666Z" fill="#535968"/>
</svg>
