<svg width="24" height="24" viewBox="0 0 24 24" fill="none" xmlns="http://www.w3.org/2000/svg">
<path fill-rule="evenodd" clip-rule="evenodd" d="M12 21.8C17.4124 21.8 21.8 17.4124 21.8 12C21.8 6.58761 17.4124 2.2 12 2.2C6.58761 2.2 2.2 6.58761 2.2 12C2.2 17.4124 6.58761 21.8 12 21.8ZM24 12C24 18.6274 18.6274 24 12 24C5.37258 24 0 18.6274 0 12C0 5.37258 5.37258 0 12 0C18.6274 0 24 5.37258 24 12Z" fill="#8585EB"/>
<path fill-rule="evenodd" clip-rule="evenodd" d="M12 6.0004C12.6627 6.0004 13.2 6.53766 13.2 7.2004V10.8H16.7984C17.4612 10.8 17.9984 11.3373 17.9984 12C17.9984 12.6627 17.4612 13.2 16.7984 13.2H13.2V16.8004C13.2 17.4631 12.6627 18.0004 12 18.0004C11.3373 18.0004 10.8 17.4631 10.8 16.8004V13.2H7.19844C6.5357 13.2 5.99844 12.6627 5.99844 12C5.99844 11.3373 6.5357 10.8 7.19844 10.8H10.8V7.2004C10.8 6.53766 11.3373 6.0004 12 6.0004Z" fill="#8585EB"/>
</svg>
